<svg xmlns="http://www.w3.org/2000/svg" width="920" height="420" viewBox="0 0 920 420">
<rect width="100%" height="100%" fill="white" />
<text x="460.0" y="26" text-anchor="middle" font-family="Arial" font-size="18">Attachment 4 NIR mean spectra by Class</text>
<line x1="55" y1="365" x2="865" y2="365" stroke="#444" />
<line x1="55" y1="55" x2="55" y2="365" stroke="#444" />
<text x="460.0" y="408" text-anchor="middle" font-family="Arial" font-size="13">wave number (cm^-1)</text>
<text x="18" y="210.0" transform="rotate(-90 18 210.0)" text-anchor="middle" font-family="Arial" font-size="13">absorbance</text>
<polyline points="55.0,130.6 57.7,133.0 60.4,142.0 63.1,152.8 65.8,164.3 68.5,175.3 71.2,184.6 73.9,190.6 76.6,195.5 79.3,198.3 82.0,199.2 84.7,198.8 87.4,198.4 90.1,198.5 92.8,198.9 95.5,200.0 98.2,202.3 100.9,204.9 103.6,206.0 106.3,207.3 109.2,212.6 111.9,221.7 114.6,230.8 117.3,236.7 120.0,238.7 122.7,237.5 125.4,234.5 128.1,230.8 130.8,227.1 133.5,223.4 136.2,220.4 138.9,216.7 141.6,213.4 144.3,211.2 147.0,209.5 149.7,208.6 152.4,207.9 155.1,207.8 157.8,208.6 160.5,209.9 163.4,211.8 166.1,213.8 168.8,216.3 171.5,219.7 174.2,225.8 176.9,231.0 179.6,235.3 182.3,238.0 185.0,238.7 187.7,237.2 190.4,233.7 193.1,228.8 195.8,223.1 198.5,217.3 201.2,211.6 203.9,205.9 206.6,200.3 209.3,196.9 212.0,194.8 214.7,197.3 217.5,205.8 220.2,216.4 222.9,235.9 225.6,259.3 228.3,275.3 231.1,291.3 233.8,299.0 236.5,305.4 239.2,307.8 241.9,309.2 244.6,309.5 247.3,309.1 250.0,308.3 252.7,307.2 255.4,305.8 258.1,304.7 260.8,303.8 263.5,302.7 266.2,302.0 268.9,301.5 271.7,301.2 274.4,300.8 277.1,300.4 279.8,300.2 282.5,300.1 285.2,300.2 287.9,300.4 290.6,300.8 293.3,301.2 296.0,301.8 298.7,302.7 301.4,303.7 304.1,304.6 306.8,305.3 309.6,305.9 312.3,306.8 315.0,308.0 317.7,308.7 320.4,309.7 323.1,310.5 325.9,311.2 328.6,311.6 331.3,311.6 334.0,311.3 336.7,310.6 339.4,309.7 342.1,308.9 344.8,307.8 347.5,306.6 350.2,305.8 352.9,304.5 355.6,303.6 358.3,302.3 361.0,301.5 363.7,300.4 366.4,299.5 369.1,298.9 371.8,298.4 374.5,298.1 377.2,297.8 380.1,297.6 382.8,297.4 385.5,297.1 388.2,296.9 390.9,296.5 393.6,296.2 396.3,295.7 399.0,294.9 401.7,294.2 404.4,293.4 407.1,292.1 409.8,291.2 412.5,290.2 415.2,289.3 417.9,288.0 420.6,287.2 423.3,286.5 426.0,285.9 428.7,285.4 431.4,284.9 434.3,284.9 437.0,285.1 439.7,285.6 442.4,286.3 445.1,287.3 447.8,289.4 450.5,291.4 453.2,293.9 455.9,297.0 458.6,300.8 461.3,305.0 464.0,309.7 466.7,314.7 469.4,319.9 472.1,325.2 474.8,330.2 477.5,334.9 480.2,339.1 482.9,342.7 485.6,345.6 488.4,348.0 491.1,349.8 493.8,351.1 496.5,351.6 499.3,352.5 502.0,353.4 504.7,354.4 507.4,355.4 510.1,356.5 512.8,357.6 515.5,358.2 518.2,359.3 520.9,360.3 523.6,361.3 526.3,362.1 529.0,362.5 531.7,363.2 534.4,363.8 537.1,364.2 539.8,364.4 542.6,364.7 545.3,364.9 548.0,365.0 550.7,365.0 553.4,365.0 556.1,364.9 558.8,364.9 561.5,364.7 564.2,364.6 566.9,364.5 569.6,364.3 572.3,364.1 575.0,364.0 577.8,363.8 580.5,363.7 583.2,363.6 585.9,363.4 588.6,363.3 591.3,363.1 594.0,362.8 596.8,362.7 599.5,362.4 602.2,362.2 604.9,361.8 607.6,361.6 610.3,361.2 613.0,361.0 615.7,360.5 618.4,360.3 621.1,359.7 623.8,359.5 626.5,359.0 629.2,358.7 631.9,358.4 634.6,358.2 637.3,358.0 640.0,358.0 642.7,358.0 645.4,358.0 648.1,358.1 651.0,358.3 653.7,358.5 656.4,358.9 659.1,359.2 661.8,359.4 664.5,360.0 667.2,360.2 669.9,360.8 672.6,361.1 675.3,361.4 678.0,362.0 680.7,362.3 683.4,362.6 686.1,363.1 688.8,363.3 691.5,363.5 694.2,363.9 696.9,364.1 699.6,364.2 702.3,364.5 705.2,364.6 707.9,364.7 710.6,364.8 713.3,364.9 716.0,364.9 718.7,364.9 721.4,364.8 724.1,364.7 726.8,364.6 729.5,364.5 732.2,364.4 734.9,364.2 737.6,364.0 740.3,363.9 743.0,363.8 745.7,363.3 748.4,363.2 751.1,363.1 753.8,362.9 756.5,362.7 759.3,362.4 762.0,362.2 764.7,362.0 767.4,361.8 770.2,361.6 772.9,361.4 775.6,361.0 778.3,360.9 781.0,360.7 783.7,360.5 786.4,360.3 789.1,360.1 791.8,359.9 794.5,359.7 797.2,359.3 799.9,359.1 802.6,358.9 805.3,358.6 808.0,358.4 810.7,358.2 813.5,358.0 816.2,357.7 818.9,357.5 821.6,357.3 824.3,357.0 827.0,356.5 829.7,356.3 832.4,356.0 835.1,355.8 837.8,355.5 840.5,355.3 843.2,355.0 845.9,354.7 848.7,354.5 851.4,354.2 854.1,354.0 856.8,353.7 859.5,353.5 862.2,353.2 865.0,353.0" fill="none" stroke="#1f77b4" stroke-width="1.4" />
<text x="715" y="55" font-family="Arial" font-size="12" fill="#1f77b4">Class A</text>
<polyline points="55.0,78.4 57.7,80.4 60.4,85.3 63.1,92.6 65.8,102.7 68.5,111.5 71.2,119.0 73.9,124.8 76.6,128.1 79.3,130.0 82.0,131.3 84.7,130.4 87.4,128.8 90.1,128.1 92.8,130.2 95.5,130.8 98.2,124.6 100.9,127.9 103.6,132.2 106.3,135.4 109.2,139.9 111.9,147.7 114.6,154.7 117.3,159.7 120.0,162.1 122.7,161.7 125.4,160.3 128.1,159.0 130.8,158.1 133.5,157.8 136.2,158.0 138.9,158.8 141.6,159.7 144.3,160.4 147.0,161.3 149.7,161.7 152.4,161.6 155.1,161.7 157.8,162.2 160.5,163.0 163.4,164.0 166.1,164.9 168.8,165.7 171.5,167.4 174.2,171.1 176.9,174.8 179.6,177.8 182.3,179.3 185.0,179.1 187.7,177.2 190.4,174.3 193.1,170.4 195.8,165.7 198.5,161.4 201.2,157.2 203.9,152.5 206.6,148.1 209.3,144.2 212.0,142.3 214.7,143.2 217.5,148.4 220.2,159.1 222.9,173.0 225.6,189.5 228.3,206.1 231.1,216.2 233.8,222.5 236.5,226.2 239.2,227.9 241.9,228.9 244.6,229.5 247.3,228.9 250.0,227.7 252.7,227.4 255.4,227.1 258.1,226.3 260.8,226.1 263.5,225.7 266.2,225.3 268.9,225.0 271.7,224.5 274.4,224.1 277.1,223.5 279.8,222.6 282.5,222.6 285.2,222.5 287.9,222.4 290.6,222.4 293.3,221.4 296.0,222.0 298.7,223.2 301.4,224.3 304.1,225.6 306.8,226.9 309.6,228.2 312.3,229.3 315.0,231.0 317.7,232.4 320.4,233.4 323.1,234.0 325.9,234.7 328.6,235.2 331.3,235.7 334.0,235.9 336.7,235.7 339.4,235.4 342.1,235.0 344.8,234.5 347.5,234.0 350.2,233.4 352.9,232.6 355.6,231.9 358.3,231.1 361.0,230.3 363.7,229.6 366.4,228.9 369.1,228.3 371.8,227.8 374.5,227.3 377.2,226.9 380.1,226.4 382.8,226.0 385.5,225.3 388.2,224.7 390.9,224.0 393.6,223.3 396.3,222.6 399.0,221.7 401.7,220.8 404.4,219.8 407.1,218.7 409.8,217.7 412.5,216.6 415.2,215.6 417.9,214.7 420.6,213.8 423.3,213.1 426.0,212.3 428.7,211.5 431.4,210.7 434.3,210.1 437.0,209.8 439.7,209.6 442.4,209.6 445.1,209.6 447.8,209.9 450.5,210.4 453.2,211.4 455.9,212.7 458.6,214.5 461.3,216.9 464.0,219.4 466.7,222.4 469.4,225.2 472.1,228.4 474.8,231.6 477.5,234.1 480.2,236.0 482.9,237.6 485.6,239.1 488.4,240.4 491.1,240.9 493.8,241.5 496.5,241.7 499.3,242.0 502.0,241.9 504.7,242.1 507.4,242.2 510.1,242.4 512.8,242.4 515.5,242.6 518.2,242.6 520.9,242.7 523.6,242.7 526.3,242.6 529.0,242.5 531.7,242.4 534.4,242.2 537.1,241.9 539.8,241.6 542.6,241.3 545.3,240.9 548.0,240.5 550.7,240.1 553.4,239.7 556.1,239.2 558.8,238.8 561.5,238.3 564.2,237.8 566.9,237.3 569.6,236.7 572.3,236.2 575.0,235.8 577.8,235.2 580.5,234.7 583.2,234.3 585.9,233.8 588.6,233.3 591.3,232.7 594.0,232.2 596.8,231.7 599.5,231.2 602.2,230.6 604.9,230.0 607.6,229.4 610.3,228.8 613.0,228.2 615.7,227.5 618.4,226.9 621.1,226.2 623.8,225.5 626.5,224.9 629.2,224.4 631.9,223.9 634.6,223.3 637.3,222.9 640.0,222.5 642.7,222.1 645.4,221.7 648.1,221.4 651.0,221.0 653.7,220.8 656.4,220.6 659.1,220.3 661.8,220.1 664.5,219.8 667.2,219.6 669.9,219.3 672.6,219.1 675.3,218.8 678.0,218.6 680.7,218.3 683.4,218.1 686.1,217.8 688.8,217.5 691.5,217.2 694.2,216.9 696.9,216.5 699.6,216.1 702.3,215.7 705.2,215.4 707.9,215.0 710.6,214.6 713.3,214.3 716.0,213.8 718.7,213.3 721.4,212.9 724.1,212.4 726.8,211.9 729.5,211.4 732.2,210.8 734.9,210.3 737.6,209.8 740.3,209.3 743.0,208.8 745.7,208.2 748.4,207.6 751.1,207.2 753.8,206.5 756.5,206.0 759.3,205.4 762.0,204.9 764.7,204.3 767.4,203.7 770.2,203.2 772.9,202.5 775.6,202.0 778.3,201.3 781.0,200.8 783.7,200.1 786.4,199.5 789.1,198.9 791.8,198.3 794.5,197.6 797.2,197.1 799.9,196.5 802.6,195.9 805.3,195.2 808.0,194.6 810.7,193.9 813.5,193.3 816.2,192.6 818.9,192.0 821.6,191.4 824.3,190.9 827.0,190.2 829.7,189.5 832.4,189.0 835.1,188.4 837.8,187.8 840.5,187.1 843.2,186.5 845.9,185.9 848.7,185.2 851.4,184.6 854.1,184.0 856.8,183.3 859.5,182.7 862.2,182.0 865.0,181.3" fill="none" stroke="#d62728" stroke-width="1.4" />
<text x="715" y="75" font-family="Arial" font-size="12" fill="#d62728">Class B</text>
<polyline points="55.0,55.1 57.7,56.2 60.4,62.2 63.1,70.4 65.8,80.1 68.5,89.2 71.2,96.3 73.9,102.2 76.6,107.2 79.3,108.2 82.0,108.2 84.7,108.0 87.4,107.3 90.1,105.6 92.8,105.0 95.5,105.6 98.2,105.9 100.9,106.0 103.6,105.9 106.3,104.8 109.2,106.8 111.9,111.2 114.6,117.7 117.3,126.1 120.0,133.2 122.7,137.9 125.4,139.8 128.1,140.6 130.8,141.4 133.5,142.1 136.2,142.4 138.9,142.5 141.6,142.9 144.3,142.7 147.0,143.2 149.7,143.7 152.4,143.6 155.1,143.7 157.8,144.3 160.5,145.6 163.4,146.8 166.1,148.2 168.8,150.0 171.5,153.3 174.2,157.6 176.9,162.3 179.6,166.4 182.3,169.4 185.0,171.0 187.7,170.5 190.4,168.3 193.1,165.0 195.8,161.3 198.5,156.8 201.2,153.4 203.9,149.7 206.6,145.9 209.3,142.2 212.0,139.8 214.7,140.5 217.5,144.8 220.2,152.8 222.9,164.4 225.6,182.6 228.3,196.9 231.1,207.1 233.8,213.2 236.5,216.6 239.2,218.6 241.9,219.4 244.6,219.6 247.3,219.1 250.0,218.3 252.7,217.4 255.4,216.8 258.1,216.3 260.8,215.8 263.5,215.2 266.2,214.5 268.9,214.0 271.7,213.7 274.4,213.7 277.1,213.7 279.8,213.5 282.5,213.5 285.2,213.6 287.9,213.6 290.6,213.7 293.3,213.9 296.0,214.1 298.7,214.7 301.4,215.7 304.1,216.6 306.8,217.0 309.6,217.6 312.3,218.4 315.0,219.6 317.7,220.3 320.4,220.6 323.1,221.1 325.9,222.2 328.6,223.7 331.3,225.3 334.0,226.7 336.7,227.3 339.4,227.4 342.1,227.1 344.8,226.7 347.5,225.9 350.2,225.1 352.9,224.3 355.6,223.3 358.3,222.3 361.0,221.4 363.7,220.3 366.4,219.6 369.1,219.0 371.8,218.5 374.5,218.2 377.2,217.8 380.1,217.5 382.8,217.1 385.5,216.6 388.2,216.1 390.9,215.7 393.6,215.2 396.3,214.7 399.0,214.0 401.7,213.1 404.4,212.3 407.1,211.3 409.8,210.4 412.5,209.5 415.2,208.6 417.9,207.6 420.6,206.9 423.3,206.3 426.0,205.7 428.7,205.1 431.4,204.5 434.3,204.1 437.0,203.9 439.7,203.8 442.4,203.8 445.1,204.0 447.8,204.3 450.5,204.9 453.2,205.9 455.9,207.7 458.6,209.9 461.3,212.5 464.0,215.5 466.7,218.7 469.4,222.0 472.1,225.8 474.8,228.8 477.5,231.3 480.2,233.4 482.9,235.2 485.6,237.0 488.4,238.1 491.1,239.0 493.8,239.4 496.5,239.6 499.3,239.8 502.0,240.0 504.7,240.4 507.4,240.7 510.1,241.2 512.8,241.6 515.5,242.0 518.2,242.5 520.9,243.0 523.6,243.5 526.3,244.0 529.0,244.2 531.7,244.4 534.4,244.4 537.1,244.4 539.8,244.3 542.6,244.1 545.3,243.9 548.0,243.6 550.7,243.3 553.4,243.0 556.1,242.7 558.8,242.3 561.5,241.9 564.2,241.5 566.9,241.0 569.6,240.6 572.3,240.2 575.0,239.8 577.8,239.5 580.5,239.1 583.2,238.7 585.9,238.4 588.6,238.0 591.3,237.6 594.0,237.1 596.8,236.7 599.5,236.3 602.2,235.9 604.9,235.3 607.6,234.9 610.3,234.4 613.0,233.9 615.7,233.4 618.4,232.8 621.1,232.2 623.8,231.6 626.5,231.1 629.2,230.7 631.9,230.3 634.6,229.9 637.3,229.5 640.0,229.2 642.7,229.0 645.4,228.7 648.1,228.5 651.0,228.4 653.7,228.4 656.4,228.5 659.1,228.5 661.8,228.6 664.5,228.6 667.2,228.6 669.9,228.6 672.6,228.7 675.3,228.8 678.0,228.9 680.7,229.0 683.4,229.1 686.1,229.2 688.8,229.2 691.5,229.2 694.2,229.1 696.9,229.1 699.6,229.0 702.3,228.9 705.2,228.9 707.9,228.7 710.6,228.7 713.3,228.6 716.0,228.6 718.7,228.5 721.4,228.4 724.1,228.3 726.8,228.2 729.5,227.9 732.2,227.7 734.9,227.5 737.6,227.3 740.3,227.0 743.0,226.7 745.7,226.4 748.4,226.2 751.1,225.9 753.8,225.6 756.5,225.3 759.3,225.0 762.0,224.7 764.7,224.4 767.4,224.0 770.2,223.7 772.9,223.4 775.6,223.2 778.3,222.8 781.0,222.5 783.7,222.1 786.4,221.8 789.1,221.4 791.8,221.1 794.5,220.7 797.2,220.3 799.9,220.0 802.6,219.6 805.3,219.3 808.0,218.9 810.7,218.6 813.5,218.2 816.2,217.8 818.9,217.4 821.6,217.1 824.3,216.7 827.0,216.3 829.7,216.0 832.4,215.7 835.1,215.3 837.8,214.9 840.5,214.6 843.2,214.3 845.9,214.0 848.7,213.6 851.4,213.2 854.1,212.9 856.8,212.5 859.5,212.1 862.2,211.8 865.0,211.3" fill="none" stroke="#2ca02c" stroke-width="1.4" />
<text x="715" y="95" font-family="Arial" font-size="12" fill="#2ca02c">Class C</text>
</svg>