<svg xmlns="http://www.w3.org/2000/svg" width="920" height="420" viewBox="0 0 920 420">
<rect width="100%" height="100%" fill="white" />
<text x="460.0" y="26" text-anchor="middle" font-family="Arial" font-size="18">Attachment 2 MIR mean spectra by OP</text>
<line x1="55" y1="365" x2="865" y2="365" stroke="#444" />
<line x1="55" y1="55" x2="55" y2="365" stroke="#444" />
<text x="460.0" y="408" text-anchor="middle" font-family="Arial" font-size="13">wave number (cm^-1)</text>
<text x="18" y="210.0" transform="rotate(-90 18 210.0)" text-anchor="middle" font-family="Arial" font-size="13">absorbance</text>
<polyline points="55.0,268.6 57.6,268.0 60.4,268.9 63.0,270.0 65.8,269.5 68.4,267.9 71.2,260.9 73.8,260.8 76.6,271.0 79.2,272.2 82.0,275.5 84.6,275.6 87.4,275.4 90.0,273.8 92.8,274.3 95.4,276.9 98.2,285.3 100.8,290.4 103.6,294.7 106.5,299.4 109.0,302.7 111.9,307.8 114.5,310.6 117.3,316.6 119.9,318.9 122.7,320.9 125.3,321.8 128.1,320.7 130.7,312.4 133.5,307.6 136.1,315.3 138.9,316.6 141.5,310.8 144.3,292.6 146.9,305.9 149.7,296.1 152.5,294.4 155.1,285.3 157.9,262.8 160.5,235.1 163.3,195.7 165.9,144.0 168.7,161.3 171.3,164.5 174.1,164.8 176.7,156.7 179.5,130.3 182.1,151.0 184.9,191.2 187.5,204.1 190.4,223.4 192.9,239.7 195.8,241.9 198.6,255.4 201.2,272.7 204.0,286.0 206.6,279.6 209.4,277.4 212.0,276.6 214.8,270.7 217.4,267.4 220.2,264.9 222.8,265.5 225.6,271.7 228.2,268.8 231.0,261.3 233.6,256.7 236.4,255.0 239.0,259.4 241.8,256.4 244.4,248.7 247.2,231.7 250.0,215.9 252.6,219.4 255.4,221.9 258.0,230.6 260.8,240.7 263.4,244.4 266.3,242.4 268.8,244.8 271.7,264.0 274.2,277.9 277.1,272.8 279.6,257.7 282.5,239.6 285.1,227.6 287.9,217.1 290.5,210.7 293.3,209.4 296.1,210.3 298.7,208.0 301.5,202.7 304.1,189.6 306.9,162.8 309.5,146.7 312.3,140.0 314.9,141.6 317.7,163.7 320.3,187.6 323.1,224.4 325.7,253.5 328.5,274.0 331.1,290.5 333.9,305.6 336.5,319.2 339.3,329.8 342.2,337.8 344.7,341.2 347.6,345.5 350.1,348.1 353.0,350.3 355.5,352.4 358.4,354.0 361.0,355.1 363.8,356.2 366.4,356.8 369.2,357.5 371.8,358.0 374.6,358.8 377.2,359.4 380.0,359.6 382.6,360.0 385.4,360.1 388.0,360.4 390.8,360.6 393.6,361.0 396.2,361.1 399.0,361.3 401.6,361.0 404.4,361.5 407.0,361.6 409.8,361.6 412.4,361.7 415.2,361.8 417.8,362.0 420.6,362.1 423.2,362.3 426.0,362.4 428.6,362.5 431.4,362.8 434.0,363.0 436.9,363.3 439.7,363.5 442.3,363.6 445.1,363.8 447.7,363.9 450.5,363.9 453.1,363.8 455.9,363.7 458.5,363.6 461.3,363.3 463.9,362.8 466.7,362.3 469.3,362.0 472.1,361.6 474.7,361.4 477.5,360.9 480.1,360.3 482.9,359.7 485.7,358.8 488.3,358.2 491.1,357.3 493.7,356.4 496.5,355.4 499.1,354.4 501.9,353.3 504.5,352.2 507.3,351.0 509.9,349.7 512.8,348.5 515.3,347.4 518.2,346.4 520.7,345.5 523.6,344.5 526.1,343.6 529.0,342.5 531.8,341.4 534.4,340.1 537.2,338.7 539.8,337.2 542.6,335.4 545.2,333.5 548.0,331.6 550.6,329.7 553.4,327.9 556.0,326.2 558.8,324.8 561.4,323.2 564.2,321.3 566.8,319.6 569.6,317.2 572.2,315.7 575.0,313.3 577.6,311.5 580.4,308.5 583.3,305.3 585.8,301.9 588.7,296.3 591.2,291.2 594.1,276.3 596.6,265.0 599.5,262.8 602.0,259.8 604.9,257.9 607.5,252.6 610.3,237.8 612.9,220.8 615.7,220.4 618.3,240.6 621.1,245.2 623.7,257.5 626.5,268.5 629.3,273.3 631.9,271.8 634.7,269.3 637.3,265.4 640.1,260.4 642.7,254.8 645.5,249.0 648.1,243.9 650.9,238.8 653.5,234.1 656.3,229.4 658.9,224.0 661.7,217.4 664.3,209.6 667.1,200.4 669.7,190.1 672.5,179.1 675.4,169.0 678.0,160.5 680.8,153.2 683.4,145.5 686.2,136.6 688.8,126.4 691.6,115.6 694.2,106.0 697.0,100.0 699.6,99.1 702.4,101.0 705.0,102.5 707.8,105.0 710.4,107.8 713.2,112.1 715.8,114.4 718.6,115.8 721.2,115.6 724.0,119.4 726.8,126.0 729.4,130.4 732.2,137.1 734.8,143.4 737.6,153.5 740.2,161.2 743.0,171.1 745.6,181.4 748.4,192.2 751.0,203.4 753.9,214.5 756.4,225.8 759.3,237.2 761.8,248.5 764.7,259.9 767.2,271.3 770.1,282.6 772.9,293.3 775.5,303.3 778.3,312.5 780.9,320.7 783.7,327.9 786.3,333.6 789.1,338.2 791.7,341.9 794.5,344.5 797.1,346.8 799.9,348.7 802.5,350.2 805.3,351.5 807.9,352.6 810.7,353.5 813.3,354.3 816.1,355.0 818.9,355.7 821.5,356.4 824.3,356.9 826.9,357.4 829.8,357.9 832.3,358.3 835.2,358.7 837.7,359.0 840.6,359.2 843.1,359.4 846.0,359.6 848.6,359.7 851.4,359.9 854.0,360.0 856.8,360.2 859.4,360.3 862.2,360.4 865.0,360.7" fill="none" stroke="#1f77b4" stroke-width="1.4" />
<text x="715" y="55" font-family="Arial" font-size="12" fill="#1f77b4">OP 1.0</text>
<polyline points="55.0,269.4 57.6,268.9 60.4,269.3 63.0,270.5 65.8,269.8 68.4,268.0 71.2,257.0 73.8,262.6 76.6,270.4 79.2,270.8 82.0,274.1 84.6,275.0 87.4,275.9 90.0,275.4 92.8,278.0 95.4,280.9 98.2,287.9 100.8,291.6 103.6,295.0 106.5,297.6 109.0,300.4 111.9,305.5 114.5,307.9 117.3,313.1 119.9,314.7 122.7,316.4 125.3,317.2 128.1,316.8 130.7,311.3 133.5,305.6 136.1,309.3 138.9,309.5 141.5,304.2 144.3,295.0 146.9,300.8 149.7,290.9 152.5,287.2 155.1,275.1 157.9,252.1 160.5,223.7 163.3,187.3 165.9,144.5 168.7,141.6 171.3,139.1 174.1,137.1 176.7,128.6 179.5,114.0 182.1,141.3 184.9,170.7 187.5,175.7 190.4,194.7 192.9,212.0 195.8,217.8 198.6,235.6 201.2,256.5 204.0,272.8 206.6,267.1 209.4,263.4 212.0,261.7 214.8,255.7 217.4,253.6 220.2,252.8 222.8,253.9 225.6,257.5 228.2,253.2 231.0,244.3 233.6,239.1 236.4,238.6 239.0,242.3 241.8,239.6 244.4,232.5 247.2,215.9 250.0,202.4 252.6,197.3 255.4,194.4 258.0,202.7 260.8,219.6 263.4,226.3 266.3,226.8 268.8,230.0 271.7,247.6 274.2,258.1 277.1,250.7 279.6,235.0 282.5,216.7 285.1,206.3 287.9,197.5 290.5,193.8 293.3,192.6 296.1,186.9 298.7,174.0 301.5,159.3 304.1,140.3 306.9,110.6 309.5,95.6 312.3,96.8 314.9,103.9 317.7,132.4 320.3,161.8 323.1,205.5 325.7,235.3 328.5,255.2 331.1,271.6 333.9,288.8 336.5,306.3 339.3,319.8 342.2,328.5 344.7,333.5 347.6,340.4 350.1,344.7 353.0,347.7 355.5,349.9 358.4,351.8 361.0,352.9 363.8,354.0 366.4,354.6 369.2,355.2 371.8,355.7 374.6,356.3 377.2,356.9 380.0,357.1 382.6,357.4 385.4,357.6 388.0,357.9 390.8,358.2 393.6,358.5 396.2,358.7 399.0,358.9 401.6,358.6 404.4,359.1 407.0,359.1 409.8,359.2 412.4,359.2 415.2,359.3 417.8,359.6 420.6,359.7 423.2,359.9 426.0,360.1 428.6,360.2 431.4,360.5 434.0,360.7 436.9,360.9 439.7,361.0 442.3,361.0 445.1,361.0 447.7,361.0 450.5,360.9 453.1,360.7 455.9,360.3 458.5,360.0 461.3,359.5 463.9,358.9 466.7,358.2 469.3,357.6 472.1,356.9 474.7,356.4 477.5,355.6 480.1,354.8 482.9,353.9 485.7,352.6 488.3,351.8 491.1,350.6 493.7,349.3 496.5,347.9 499.1,346.6 501.9,345.2 504.5,343.7 507.3,342.1 509.9,340.5 512.8,338.9 515.3,337.5 518.2,336.2 520.7,334.9 523.6,333.7 526.1,332.4 529.0,330.9 531.8,329.2 534.4,327.3 537.2,325.4 539.8,323.5 542.6,321.6 545.2,319.8 548.0,317.8 550.6,315.9 553.4,313.9 556.0,311.9 558.8,309.9 561.4,307.8 564.2,305.4 566.8,303.3 569.6,300.8 572.2,299.0 575.0,296.2 577.6,293.9 580.4,290.1 583.3,286.1 585.8,282.2 588.7,275.9 591.2,270.3 594.1,255.2 596.6,242.8 599.5,239.2 602.0,235.6 604.9,233.1 607.5,227.3 610.3,212.8 612.9,195.8 615.7,197.6 618.3,214.8 621.1,218.1 623.7,229.0 626.5,239.4 629.3,243.8 631.9,241.5 634.7,238.5 637.3,234.6 640.1,229.8 642.7,224.7 645.5,219.7 648.1,215.6 650.9,211.7 653.5,208.2 656.3,204.7 658.9,200.8 661.7,195.9 664.3,189.9 667.1,183.0 669.7,175.2 672.5,166.9 675.4,158.8 678.0,151.6 680.8,145.1 683.4,138.5 686.2,131.0 688.8,122.3 691.6,112.6 694.2,103.8 697.0,98.2 699.6,96.7 702.4,97.8 705.0,98.8 707.8,101.0 710.4,103.6 713.2,107.5 715.8,110.1 718.6,112.6 721.2,113.7 724.0,118.4 726.8,125.6 729.4,130.7 732.2,138.5 734.8,145.2 737.6,156.0 740.2,164.2 743.0,174.6 745.6,185.5 748.4,196.8 751.0,208.5 753.9,220.2 756.4,232.1 759.3,244.2 761.8,256.1 764.7,268.0 767.2,279.7 770.1,291.3 772.9,302.1 775.5,312.1 778.3,321.4 780.9,329.5 783.7,336.5 786.3,342.1 789.1,346.4 791.7,349.8 794.5,352.0 797.1,354.0 799.9,355.6 802.5,356.9 805.3,357.9 807.9,358.8 810.7,359.6 813.3,360.3 816.1,361.0 818.9,361.4 821.5,362.0 824.3,362.4 826.9,362.8 829.8,363.2 832.3,363.5 835.2,363.7 837.7,363.9 840.6,364.1 843.1,364.2 846.0,364.3 848.6,364.4 851.4,364.5 854.0,364.6 856.8,364.7 859.4,364.7 862.2,364.8 865.0,365.0" fill="none" stroke="#d62728" stroke-width="1.4" />
<text x="715" y="75" font-family="Arial" font-size="12" fill="#d62728">OP 10.0</text>
<polyline points="55.0,266.0 57.6,265.9 60.4,267.2 63.0,268.8 65.8,268.7 68.4,266.9 71.2,259.7 73.8,261.2 76.6,270.1 79.2,271.2 82.0,275.0 84.6,274.9 87.4,276.1 90.0,275.7 92.8,278.0 95.4,281.3 98.2,288.5 100.8,292.5 103.6,295.9 106.5,300.3 109.0,303.8 111.9,309.0 114.5,311.7 117.3,316.8 119.9,318.6 122.7,319.5 125.3,320.6 128.1,319.3 130.7,312.5 133.5,307.5 136.1,314.0 138.9,313.3 141.5,308.0 144.3,297.2 146.9,303.9 149.7,294.0 152.5,292.6 155.1,279.8 157.9,252.0 160.5,224.2 163.3,189.6 165.9,145.1 168.7,149.8 171.3,150.3 174.1,154.2 176.7,148.0 179.5,126.3 182.1,151.9 184.9,186.6 187.5,196.5 190.4,215.6 192.9,231.2 195.8,233.5 198.6,247.6 201.2,267.2 204.0,281.7 206.6,275.1 209.4,271.1 212.0,269.8 214.8,264.4 217.4,262.1 220.2,261.0 222.8,262.1 225.6,267.7 228.2,266.0 231.0,259.1 233.6,253.0 236.4,252.2 239.0,255.1 241.8,250.8 244.4,246.1 247.2,233.5 250.0,220.9 252.6,218.0 255.4,214.1 258.0,221.5 260.8,234.4 263.4,239.8 266.3,241.7 268.8,244.6 271.7,261.3 274.2,270.4 277.1,260.9 279.6,242.5 282.5,222.7 285.1,214.4 287.9,208.3 290.5,205.7 293.3,206.4 296.1,201.6 298.7,196.0 301.5,188.8 304.1,176.9 306.9,150.6 309.5,132.7 312.3,126.8 314.9,131.0 317.7,154.9 320.3,179.9 323.1,217.0 325.7,246.5 328.5,265.8 331.1,280.6 333.9,295.3 336.5,310.2 339.3,322.4 342.2,330.6 344.7,335.1 347.6,340.8 350.1,344.5 353.0,347.4 355.5,349.6 358.4,351.5 361.0,352.7 363.8,353.9 366.4,354.6 369.2,355.4 371.8,356.0 374.6,356.8 377.2,357.4 380.0,357.6 382.6,358.0 385.4,358.2 388.0,358.6 390.8,358.9 393.6,359.3 396.2,359.4 399.0,359.7 401.6,359.7 404.4,359.8 407.0,359.8 409.8,359.8 412.4,359.8 415.2,359.9 417.8,360.1 420.6,360.2 423.2,360.3 426.0,360.4 428.6,360.6 431.4,361.1 434.0,361.4 436.9,361.8 439.7,362.1 442.3,362.2 445.1,362.4 447.7,362.6 450.5,362.6 453.1,362.5 455.9,362.4 458.5,362.2 461.3,361.8 463.9,361.3 466.7,360.8 469.3,360.4 472.1,359.9 474.7,359.5 477.5,358.9 480.1,358.3 482.9,357.5 485.7,356.6 488.3,355.8 491.1,354.8 493.7,353.7 496.5,352.5 499.1,351.3 501.9,350.0 504.5,348.7 507.3,347.3 509.9,345.8 512.8,344.3 515.3,343.0 518.2,341.8 520.7,340.6 523.6,339.4 526.1,338.1 529.0,336.7 531.8,335.1 534.4,333.5 537.2,331.9 539.8,330.3 542.6,328.7 545.2,326.9 548.0,325.1 550.6,323.2 553.4,321.4 556.0,319.7 558.8,318.0 561.4,316.2 564.2,314.0 566.8,312.3 569.6,310.0 572.2,308.5 575.0,306.1 577.6,304.2 580.4,300.9 583.3,297.2 585.8,293.5 588.7,287.5 591.2,282.0 594.1,267.8 596.6,255.9 599.5,251.6 602.0,248.0 604.9,245.9 607.5,240.6 610.3,226.9 612.9,210.8 615.7,210.6 618.3,228.2 621.1,231.8 623.7,242.4 626.5,253.7 629.3,259.1 631.9,257.8 634.7,255.4 637.3,251.7 640.1,247.1 642.7,242.2 645.5,237.4 648.1,233.4 650.9,230.0 653.5,226.9 656.3,223.7 658.9,219.9 661.7,215.0 664.3,208.9 667.1,201.7 669.7,193.4 672.5,184.4 675.4,175.5 678.0,167.6 680.8,160.3 683.4,152.7 686.2,144.1 688.8,134.3 691.6,123.4 694.2,112.9 697.0,105.8 699.6,103.5 702.4,103.7 705.0,103.9 707.8,105.3 710.4,107.4 713.2,110.8 715.8,112.6 718.6,113.4 721.2,112.9 724.0,116.4 726.8,122.8 729.4,127.2 732.2,133.8 734.8,140.1 737.6,149.9 740.2,157.4 743.0,167.0 745.6,177.2 748.4,187.7 751.0,198.7 753.9,209.8 756.4,221.2 759.3,233.0 761.8,244.5 764.7,256.4 767.2,267.9 770.1,279.7 772.9,290.6 775.5,300.9 778.3,310.4 780.9,318.7 783.7,326.1 786.3,331.9 789.1,336.7 791.7,340.4 794.5,343.0 797.1,345.4 799.9,347.3 802.5,348.8 805.3,350.0 807.9,351.2 810.7,352.1 813.3,352.9 816.1,353.6 818.9,354.2 821.5,354.9 824.3,355.5 826.9,356.0 829.8,356.4 832.3,356.8 835.2,357.2 837.7,357.5 840.6,357.7 843.1,357.9 846.0,358.0 848.6,358.1 851.4,358.3 854.0,358.4 856.8,358.6 859.4,358.7 862.2,358.8 865.0,359.0" fill="none" stroke="#2ca02c" stroke-width="1.4" />
<text x="715" y="95" font-family="Arial" font-size="12" fill="#2ca02c">OP 11.0</text>
<polyline points="55.0,245.4 57.6,245.6 60.4,246.4 63.0,248.4 65.8,248.6 68.4,245.7 71.2,237.7 73.8,241.2 76.6,250.6 79.2,251.8 82.0,256.6 84.6,256.5 87.4,258.4 90.0,257.4 92.8,260.0 95.4,264.3 98.2,273.1 100.8,277.9 103.6,280.8 106.5,286.3 109.0,290.6 111.9,297.9 114.5,299.7 117.3,306.9 119.9,308.7 122.7,309.4 125.3,309.8 128.1,310.3 130.7,302.4 133.5,297.8 136.1,303.9 138.9,302.6 141.5,295.7 144.3,282.0 146.9,291.3 149.7,281.2 152.5,276.3 155.1,257.2 157.9,216.7 160.5,182.3 163.3,139.0 165.9,82.5 168.7,88.8 171.3,90.0 174.1,99.8 176.7,95.9 179.5,69.1 182.1,100.8 184.9,142.0 187.5,152.1 190.4,176.1 192.9,195.1 195.8,194.5 198.6,215.9 201.2,246.0 204.0,269.9 206.6,263.6 209.4,259.8 212.0,259.9 214.8,253.9 217.4,251.0 220.2,248.6 222.8,249.9 225.6,255.3 228.2,252.6 231.0,242.3 233.6,234.1 236.4,230.7 239.0,232.7 241.8,226.6 244.4,220.2 247.2,207.3 250.0,194.9 252.6,189.7 255.4,180.8 258.0,191.2 260.8,210.0 263.4,216.3 266.3,218.1 268.8,220.7 271.7,240.0 274.2,248.6 277.1,237.8 279.6,217.4 282.5,195.9 285.1,189.7 287.9,183.6 290.5,178.1 293.3,173.0 296.1,162.9 298.7,157.3 301.5,152.1 304.1,141.2 306.9,112.0 309.5,95.3 312.3,93.6 314.9,101.5 317.7,132.4 320.3,163.1 323.1,207.8 325.7,242.2 328.5,266.0 331.1,283.3 333.9,297.6 336.5,311.0 339.3,323.1 342.2,332.1 344.7,336.4 347.6,341.3 350.1,344.6 353.0,347.2 355.5,349.4 358.4,351.2 361.0,352.7 363.8,353.8 366.4,354.7 369.2,355.4 371.8,356.2 374.6,356.9 377.2,357.5 380.0,357.8 382.6,358.2 385.4,358.2 388.0,358.6 390.8,358.7 393.6,359.1 396.2,359.2 399.0,359.3 401.6,359.3 404.4,359.2 407.0,359.1 409.8,358.9 412.4,358.8 415.2,358.8 417.8,358.9 420.6,358.8 423.2,358.8 426.0,359.0 428.6,359.2 431.4,359.8 434.0,360.3 436.9,360.9 439.7,361.3 442.3,361.6 445.1,362.0 447.7,362.2 450.5,362.4 453.1,362.4 455.9,362.3 458.5,362.1 461.3,361.8 463.9,361.3 466.7,360.7 469.3,360.2 472.1,359.8 474.7,359.4 477.5,358.7 480.1,358.0 482.9,357.3 485.7,356.2 488.3,355.5 491.1,354.2 493.7,352.9 496.5,351.5 499.1,350.0 501.9,348.4 504.5,346.7 507.3,344.9 509.9,343.1 512.8,341.1 515.3,339.4 518.2,337.8 520.7,336.3 523.6,334.6 526.1,332.8 529.0,330.9 531.8,328.7 534.4,326.7 537.2,324.6 539.8,322.8 542.6,320.9 545.2,318.8 548.0,316.4 550.6,314.0 553.4,311.6 556.0,309.4 558.8,307.1 561.4,304.7 564.2,302.0 566.8,299.9 569.6,297.2 572.2,295.4 575.0,292.6 577.6,290.4 580.4,286.2 583.3,281.7 585.8,277.1 588.7,269.4 591.2,262.5 594.1,244.9 596.6,230.7 599.5,225.3 602.0,220.6 604.9,217.5 607.5,211.0 610.3,194.4 612.9,175.6 615.7,176.0 618.3,197.5 621.1,202.8 623.7,215.9 626.5,228.8 629.3,235.2 631.9,233.7 634.7,231.0 637.3,226.5 640.1,221.0 642.7,215.2 645.5,209.3 648.1,204.3 650.9,200.0 653.5,196.3 656.3,192.6 658.9,188.3 661.7,182.7 664.3,175.7 667.1,167.3 669.7,157.6 672.5,146.9 675.4,136.5 678.0,127.3 680.8,119.0 683.4,110.2 686.2,100.2 688.8,88.6 691.6,76.2 694.2,64.6 697.0,57.1 699.6,55.0 702.4,56.0 705.0,56.8 707.8,58.6 710.4,61.0 713.2,64.9 715.8,67.0 718.6,68.3 721.2,68.3 724.0,72.4 726.8,79.8 729.4,84.9 732.2,92.5 734.8,99.9 737.6,111.4 740.2,120.1 743.0,131.5 745.6,143.5 748.4,156.1 751.0,169.2 753.9,182.4 756.4,196.0 759.3,209.8 761.8,223.6 764.7,237.7 767.2,251.3 770.1,265.3 772.9,278.2 775.5,290.3 778.3,301.3 780.9,311.1 783.7,319.6 786.3,326.4 789.1,331.9 791.7,336.2 794.5,339.2 797.1,342.0 799.9,344.3 802.5,346.1 805.3,347.6 807.9,348.9 810.7,350.1 813.3,351.0 816.1,351.9 818.9,352.7 821.5,353.6 824.3,354.2 826.9,354.9 829.8,355.4 832.3,355.9 835.2,356.4 837.7,356.7 840.6,357.0 843.1,357.2 846.0,357.5 848.6,357.6 851.4,357.9 854.0,358.0 856.8,358.2 859.4,358.3 862.2,358.5 865.0,358.8" fill="none" stroke="#9467bd" stroke-width="1.4" />
<text x="715" y="115" font-family="Arial" font-size="12" fill="#9467bd">OP 2.0</text>
<polyline points="55.0,267.2 57.6,266.5 60.4,267.1 63.0,267.9 65.8,267.2 68.4,265.4 71.2,255.4 73.8,257.4 76.6,268.6 79.2,269.3 82.0,273.5 84.6,273.5 87.4,273.1 90.0,271.4 92.8,271.8 95.4,274.2 98.2,282.6 100.8,287.6 103.6,291.8 106.5,296.4 109.0,300.5 111.9,306.4 114.5,309.7 117.3,315.0 119.9,316.9 122.7,318.7 125.3,319.0 128.1,316.0 130.7,306.5 133.5,301.2 136.1,310.1 138.9,309.8 141.5,302.5 144.3,284.7 146.9,297.4 149.7,286.1 152.5,286.0 155.1,274.8 157.9,252.1 160.5,225.3 163.3,187.5 165.9,138.0 168.7,154.0 171.3,155.4 174.1,158.6 176.7,151.6 179.5,124.0 182.1,146.6 184.9,183.5 187.5,192.4 190.4,210.2 192.9,225.5 195.8,229.1 198.6,243.7 201.2,261.7 204.0,274.4 206.6,267.9 209.4,266.3 212.0,266.0 214.8,261.2 217.4,258.8 220.2,256.7 222.8,257.1 225.6,262.8 228.2,260.4 231.0,254.5 233.6,250.6 236.4,248.9 239.0,253.6 241.8,251.2 244.4,245.5 247.2,230.7 250.0,216.4 252.6,221.2 255.4,222.9 258.0,228.4 260.8,236.0 263.4,239.2 266.3,237.9 268.8,239.6 271.7,259.0 274.2,274.7 277.1,271.1 279.6,256.9 282.5,239.4 285.1,229.0 287.9,221.4 290.5,219.1 293.3,221.6 296.1,220.8 298.7,213.8 301.5,204.6 304.1,190.7 306.9,165.7 309.5,149.7 312.3,142.5 314.9,142.5 317.7,160.5 320.3,182.4 323.1,216.1 325.7,241.3 328.5,257.3 331.1,270.2 333.9,284.5 336.5,301.2 339.3,314.8 342.2,324.0 344.7,329.7 347.6,337.2 350.1,342.1 353.0,345.7 355.5,348.3 358.4,350.5 361.0,351.9 363.8,353.2 366.4,354.1 369.2,354.9 371.8,355.6 374.6,356.4 377.2,357.1 380.0,357.5 382.6,358.0 385.4,358.3 388.0,358.7 390.8,359.1 393.6,359.6 396.2,359.9 399.0,360.3 401.6,360.5 404.4,360.7 407.0,360.9 409.8,361.1 412.4,361.1 415.2,361.4 417.8,361.7 420.6,361.9 423.2,362.0 426.0,362.2 428.6,362.3 431.4,362.6 434.0,362.9 436.9,363.1 439.7,363.3 442.3,363.4 445.1,363.5 447.7,363.6 450.5,363.6 453.1,363.5 455.9,363.3 458.5,363.1 461.3,362.8 463.9,362.3 466.7,361.7 469.3,361.2 472.1,360.7 474.7,360.3 477.5,359.7 480.1,359.0 482.9,358.3 485.7,357.3 488.3,356.6 491.1,355.7 493.7,354.6 496.5,353.5 499.1,352.5 501.9,351.4 504.5,350.2 507.3,349.0 509.9,347.7 512.8,346.4 515.3,345.3 518.2,344.2 520.7,343.2 523.6,342.1 526.1,341.1 529.0,340.0 531.8,338.8 534.4,337.5 537.2,336.1 539.8,334.5 542.6,332.7 545.2,330.8 548.0,328.9 550.6,327.0 553.4,325.3 556.0,323.8 558.8,322.4 561.4,320.9 564.2,319.0 566.8,317.2 569.6,314.9 572.2,313.3 575.0,311.0 577.6,309.2 580.4,306.1 583.3,302.8 585.8,299.4 588.7,293.8 591.2,288.7 594.1,275.0 596.6,264.0 599.5,260.8 602.0,257.5 604.9,255.6 607.5,251.0 610.3,237.5 612.9,221.4 615.7,219.0 618.3,239.0 621.1,244.1 623.7,255.8 626.5,266.7 629.3,271.6 631.9,270.1 634.7,267.7 637.3,263.9 640.1,259.2 642.7,254.0 645.5,248.8 648.1,244.1 650.9,239.5 653.5,235.1 656.3,230.5 658.9,225.4 661.7,219.1 664.3,211.6 667.1,202.9 669.7,193.1 672.5,182.6 675.4,172.7 678.0,164.4 680.8,157.1 683.4,149.5 686.2,140.8 688.8,130.9 691.6,120.2 694.2,110.5 697.0,104.2 699.6,102.8 702.4,104.1 705.0,105.2 707.8,107.3 710.4,110.0 713.2,114.3 715.8,116.8 718.6,118.3 721.2,118.1 724.0,122.0 726.8,128.8 729.4,133.1 732.2,139.7 734.8,145.7 737.6,155.3 740.2,162.6 743.0,171.9 745.6,181.7 748.4,192.0 751.0,202.7 753.9,213.5 756.4,224.4 759.3,235.6 761.8,246.8 764.7,258.2 767.2,269.5 770.1,280.8 772.9,291.6 775.5,301.7 778.3,311.0 780.9,319.4 783.7,326.7 786.3,332.7 789.1,337.5 791.7,341.3 794.5,344.0 797.1,346.3 799.9,348.3 802.5,349.8 805.3,351.1 807.9,352.3 810.7,353.3 813.3,354.2 816.1,355.0 818.9,355.6 821.5,356.3 824.3,356.9 826.9,357.5 829.8,357.9 832.3,358.4 835.2,358.7 837.7,359.1 840.6,359.3 843.1,359.5 846.0,359.7 848.6,359.9 851.4,360.1 854.0,360.2 856.8,360.3 859.4,360.5 862.2,360.6 865.0,360.9" fill="none" stroke="#ff7f0e" stroke-width="1.4" />
<text x="715" y="135" font-family="Arial" font-size="12" fill="#ff7f0e">OP 3.0</text>
</svg>